<?xml version="1.0" encoding="iso-8859-1"?>
<!-- Generator: Adobe Illustrator 16.0.0, SVG Export Plug-In . SVG Version: 6.00 Build 0)  -->
<!DOCTYPE svg PUBLIC "-//W3C//DTD SVG 1.1//EN" "http://www.w3.org/Graphics/SVG/1.1/DTD/svg11.dtd">
<svg version="1.1" id="Capa_1" xmlns="http://www.w3.org/2000/svg" xmlns:xlink="http://www.w3.org/1999/xlink" x="0px" y="0px"
	 width="367.779px" height="367.778px" viewBox="0 0 367.779 367.778" style="enable-background:new 0 0 367.779 367.778;"
	 xml:space="preserve" fill="#757575">
<g>
	<path d="M274.212,9.266c-52.632-24.48-109.548,3.06-146.268,41.616c-55.08,57.528-46.512,128.52-57.528,200.735
		c-5.508-0.611-11.016,0-17.136,0c-9.792,0-19.584-0.611-29.376-1.836c-4.284-0.611-6.12,4.896-4.284,7.957
		c-1.224,14.688,21.42,38.557,28.152,48.959c13.464,19.584,29.376,44.678,51.408,56.305c26.316,14.076,47.736-5.508,61.2-25.703
		c11.016-15.912,19.584-33.66,30.6-49.572c7.345-10.404,17.137-22.033,15.301-35.496v-0.613c0-0.611,0-0.611,0-1.223
		c0-0.613,0-0.613-0.612-1.225l0,0c-0.612-0.611-1.224-1.225-1.836-1.836l0,0c-4.896-3.061-12.853-1.225-18.36-1.225
		c-6.731,0-13.463,0.613-20.808,1.225c3.06-53.855,14.688-148.104,71.604-168.3c45.899-16.524,75.275,33.66,83.844,70.38
		c8.567,34.272,6.731,70.992,6.731,105.877c0,6.119,6.732,7.955,11.017,5.508c3.672,1.223,7.956-0.613,7.956-5.508
		C350.712,176.342,360.504,49.658,274.212,9.266z M245.449,61.898c-77.724,4.284-91.188,132.803-89.352,189.719
		c0,3.674,3.06,4.896,6.12,4.285c0.612,0,1.224,0.611,1.836,0.611c7.344,0.613,14.688,1.225,22.032,1.225
		c1.836,0,3.06,0,4.896,0.611c-12.239,18.361-23.867,37.945-34.271,56.916c-8.568,15.301-17.748,35.496-37.944,37.332
		c-12.852,1.225-22.032-10.404-29.988-18.359c-15.912-17.137-28.764-36.107-42.228-55.08c-3.06-4.283-5.508-9.793-9.18-15.301
		c4.284,0.613,8.568,1.225,12.852,1.225c7.956,0.611,17.136,1.836,25.092-0.611c2.448,0,4.284-1.225,4.896-3.672
		c6.732-25.092,7.956-51.408,9.792-77.113c2.448-37.332,12.852-70.38,33.048-101.592c33.66-52.02,102.816-86.904,160.344-50.184
		c40.393,25.704,51.408,78.336,53.244,130.968C328.68,107.798,306.037,58.838,245.449,61.898z"/>
</g>
<g>
</g>
<g>
</g>
<g>
</g>
<g>
</g>
<g>
</g>
<g>
</g>
<g>
</g>
<g>
</g>
<g>
</g>
<g>
</g>
<g>
</g>
<g>
</g>
<g>
</g>
<g>
</g>
<g>
</g>
</svg>
